<mxfile>
    <diagram id="79B9tlmsqGTh1D3DdXJI" name="ACME Diagram">
        <mxGraphModel dx="2420" dy="965" grid="1" gridSize="10" guides="1" tooltips="1" connect="1" arrows="1" fold="1" page="1" pageScale="1" pageWidth="827" pageHeight="1169" math="0" shadow="0">
            <root>
                <mxCell id="0"/>
                <mxCell id="1" parent="0"/>
                <mxCell id="6AXqKsSlTVGJSSD1UK3N-5" value="Private subnet" style="points=[[0,0],[0.25,0],[0.5,0],[0.75,0],[1,0],[1,0.25],[1,0.5],[1,0.75],[1,1],[0.75,1],[0.5,1],[0.25,1],[0,1],[0,0.75],[0,0.5],[0,0.25]];outlineConnect=0;gradientColor=none;html=1;whiteSpace=wrap;fontSize=12;fontStyle=0;shape=mxgraph.aws4.group;grIcon=mxgraph.aws4.group_security_group;grStroke=0;strokeColor=#147EBA;fillColor=#E6F2F8;verticalAlign=top;align=left;spacingLeft=30;fontColor=#147EBA;dashed=0;" parent="1" vertex="1">
                    <mxGeometry x="-265.42999999999995" y="251.25" width="500" height="630" as="geometry"/>
                </mxCell>
                <mxCell id="6AXqKsSlTVGJSSD1UK3N-27" value="" style="rounded=1;arcSize=3;dashed=1;strokeColor=#F59D56;fillColor=none;gradientColor=none;dashPattern=8 4;strokeWidth=2;" parent="1" vertex="1">
                    <mxGeometry x="-540" y="220" width="810.13" height="700" as="geometry"/>
                </mxCell>
                <mxCell id="6AXqKsSlTVGJSSD1UK3N-25" value="" style="rounded=1;arcSize=10;dashed=1;strokeColor=#ff0000;fillColor=none;gradientColor=none;dashPattern=8 4;strokeWidth=2;" parent="1" vertex="1">
                    <mxGeometry x="-101" y="430" width="99" height="75" as="geometry"/>
                </mxCell>
                <mxCell id="6AXqKsSlTVGJSSD1UK3N-6" value="" style="outlineConnect=0;dashed=0;verticalLabelPosition=bottom;verticalAlign=top;align=center;html=1;shape=mxgraph.aws3.rds;fillColor=#2E73B8;gradientColor=none;" parent="1" vertex="1">
                    <mxGeometry x="-75.13" y="439.5" width="50" height="56" as="geometry"/>
                </mxCell>
                <mxCell id="8" value="" style="rounded=1;arcSize=10;dashed=1;strokeColor=#ff0000;fillColor=none;gradientColor=none;dashPattern=8 4;strokeWidth=2;" vertex="1" parent="1">
                    <mxGeometry x="-220" y="430" width="99" height="75" as="geometry"/>
                </mxCell>
                <mxCell id="6AXqKsSlTVGJSSD1UK3N-2" value="Public subnet" style="points=[[0,0],[0.25,0],[0.5,0],[0.75,0],[1,0],[1,0.25],[1,0.5],[1,0.75],[1,1],[0.75,1],[0.5,1],[0.25,1],[0,1],[0,0.75],[0,0.5],[0,0.25]];outlineConnect=0;gradientColor=none;html=1;whiteSpace=wrap;fontSize=12;fontStyle=0;shape=mxgraph.aws4.group;grIcon=mxgraph.aws4.group_security_group;grStroke=0;strokeColor=#248814;fillColor=#E9F3E6;verticalAlign=top;align=left;spacingLeft=30;fontColor=#248814;dashed=0;" parent="1" vertex="1">
                    <mxGeometry x="-490" y="250" width="210" height="630" as="geometry"/>
                </mxCell>
                <mxCell id="6AXqKsSlTVGJSSD1UK3N-34" value="" style="rounded=1;arcSize=10;dashed=1;strokeColor=#ff0000;fillColor=none;gradientColor=none;dashPattern=8 4;strokeWidth=2;" parent="1" vertex="1">
                    <mxGeometry x="-461.75" y="415" width="153.5" height="110" as="geometry"/>
                </mxCell>
                <mxCell id="6AXqKsSlTVGJSSD1UK3N-26" value="" style="rounded=1;arcSize=10;dashed=1;strokeColor=#ff0000;fillColor=none;gradientColor=none;dashPattern=8 4;strokeWidth=2;" parent="1" vertex="1">
                    <mxGeometry x="18.25" y="432.5" width="99" height="70" as="geometry"/>
                </mxCell>
                <mxCell id="6AXqKsSlTVGJSSD1UK3N-1" value="VPC" style="outlineConnect=0;html=1;whiteSpace=wrap;fontSize=12;fontStyle=0;shape=mxgraph.aws4.group;grIcon=mxgraph.aws4.group_vpc;verticalAlign=top;align=left;spacingLeft=30;dashed=0;strokeWidth=6;" parent="1" vertex="1">
                    <mxGeometry x="1470" y="480" width="981.75" height="820" as="geometry"/>
                </mxCell>
                <mxCell id="6AXqKsSlTVGJSSD1UK3N-3" value="" style="outlineConnect=0;dashed=0;verticalLabelPosition=bottom;verticalAlign=top;align=center;html=1;shape=mxgraph.aws3.internet_gateway;fillColor=#F58536;gradientColor=none;" parent="1" vertex="1">
                    <mxGeometry x="172" y="64.75" width="69" height="72" as="geometry"/>
                </mxCell>
                <mxCell id="6AXqKsSlTVGJSSD1UK3N-4" value="" style="outlineConnect=0;dashed=0;verticalLabelPosition=bottom;verticalAlign=top;align=center;html=1;shape=mxgraph.aws3.vpc_nat_gateway;fillColor=#F58536;gradientColor=none;" parent="1" vertex="1">
                    <mxGeometry x="-393" y="307" width="33" height="36" as="geometry"/>
                </mxCell>
                <mxCell id="6AXqKsSlTVGJSSD1UK3N-9" value="" style="outlineConnect=0;dashed=0;verticalLabelPosition=bottom;verticalAlign=top;align=center;html=1;shape=mxgraph.aws3.lambda;fillColor=#F58534;gradientColor=none;" parent="1" vertex="1">
                    <mxGeometry x="44.120000000000005" y="437.5" width="50" height="60" as="geometry"/>
                </mxCell>
                <mxCell id="6AXqKsSlTVGJSSD1UK3N-13" style="edgeStyle=orthogonalEdgeStyle;rounded=0;orthogonalLoop=1;jettySize=auto;html=1;" parent="1" source="6AXqKsSlTVGJSSD1UK3N-11" target="6AXqKsSlTVGJSSD1UK3N-3" edge="1">
                    <mxGeometry relative="1" as="geometry">
                        <mxPoint x="31.5" y="-30" as="targetPoint"/>
                        <Array as="points">
                            <mxPoint x="32" y="100"/>
                        </Array>
                    </mxGeometry>
                </mxCell>
                <mxCell id="6AXqKsSlTVGJSSD1UK3N-11" value="" style="outlineConnect=0;dashed=0;verticalLabelPosition=bottom;verticalAlign=top;align=center;html=1;shape=mxgraph.aws3.route_table;fillColor=#F58536;gradientColor=none;" parent="1" vertex="1">
                    <mxGeometry x="9.25" y="120" width="46" height="50" as="geometry"/>
                </mxCell>
                <mxCell id="6AXqKsSlTVGJSSD1UK3N-18" value="" style="outlineConnect=0;dashed=0;verticalLabelPosition=bottom;verticalAlign=top;align=center;html=1;shape=mxgraph.aws3.elastic_ip;fillColor=#F58534;gradientColor=none;" parent="1" vertex="1">
                    <mxGeometry x="-443.5" y="317.5" width="50.5" height="15" as="geometry"/>
                </mxCell>
                <mxCell id="6AXqKsSlTVGJSSD1UK3N-20" value="" style="outlineConnect=0;dashed=0;verticalLabelPosition=bottom;verticalAlign=top;align=center;html=1;shape=mxgraph.aws3.ec2_systems_manager;fillColor=#759C3E;gradientColor=none;" parent="1" vertex="1">
                    <mxGeometry x="710" y="130" width="79.5" height="82.5" as="geometry"/>
                </mxCell>
                <mxCell id="6AXqKsSlTVGJSSD1UK3N-21" value="" style="outlineConnect=0;dashed=0;verticalLabelPosition=bottom;verticalAlign=top;align=center;html=1;shape=mxgraph.aws3.cognito;fillColor=#AD688B;gradientColor=none;strokeWidth=6;" parent="1" vertex="1">
                    <mxGeometry x="710" y="250" width="76.5" height="93" as="geometry"/>
                </mxCell>
                <mxCell id="6AXqKsSlTVGJSSD1UK3N-23" value="" style="outlineConnect=0;dashed=0;verticalLabelPosition=bottom;verticalAlign=top;align=center;html=1;shape=mxgraph.aws3.s3;fillColor=#E05243;gradientColor=none;strokeWidth=6;" parent="1" vertex="1">
                    <mxGeometry x="711.5" y="380" width="76.5" height="93" as="geometry"/>
                </mxCell>
                <mxCell id="6AXqKsSlTVGJSSD1UK3N-24" value="" style="outlineConnect=0;dashed=0;verticalLabelPosition=bottom;verticalAlign=top;align=center;html=1;shape=mxgraph.aws3.cloudfront;fillColor=#F58536;gradientColor=none;strokeWidth=6;" parent="1" vertex="1">
                    <mxGeometry x="700" y="530" width="76.5" height="93" as="geometry"/>
                </mxCell>
                <mxCell id="6AXqKsSlTVGJSSD1UK3N-29" value="10.0.0.0/24" style="text;html=1;strokeColor=none;fillColor=none;align=center;verticalAlign=middle;whiteSpace=wrap;rounded=0;" parent="1" vertex="1">
                    <mxGeometry x="-458.25" y="950" width="150" height="20" as="geometry"/>
                </mxCell>
                <mxCell id="6AXqKsSlTVGJSSD1UK3N-30" value="10.0.1.0/24" style="text;html=1;strokeColor=none;fillColor=none;align=center;verticalAlign=middle;whiteSpace=wrap;rounded=0;" parent="1" vertex="1">
                    <mxGeometry x="201" y="575" width="40" height="20" as="geometry"/>
                </mxCell>
                <mxCell id="6AXqKsSlTVGJSSD1UK3N-32" value="us-east-1a" style="text;html=1;align=center;verticalAlign=middle;whiteSpace=wrap;rounded=0;fillColor=#647687;strokeColor=#314354;fontColor=#ffffff;" parent="1" vertex="1">
                    <mxGeometry x="-73.5" y="205.75" width="80" height="20" as="geometry"/>
                </mxCell>
                <mxCell id="6AXqKsSlTVGJSSD1UK3N-14" style="edgeStyle=orthogonalEdgeStyle;rounded=0;orthogonalLoop=1;jettySize=auto;html=1;fillColor=#f0a30a;strokeColor=#BD7000;strokeWidth=3;" parent="1" source="6AXqKsSlTVGJSSD1UK3N-4" target="6AXqKsSlTVGJSSD1UK3N-11" edge="1">
                    <mxGeometry relative="1" as="geometry">
                        <Array as="points">
                            <mxPoint x="-376" y="145"/>
                        </Array>
                    </mxGeometry>
                </mxCell>
                <mxCell id="2" value="" style="rounded=1;arcSize=10;dashed=1;strokeColor=#ff0000;fillColor=none;gradientColor=none;dashPattern=8 4;strokeWidth=2;" vertex="1" parent="1">
                    <mxGeometry x="-463.75" y="575" width="153.5" height="110" as="geometry"/>
                </mxCell>
                <mxCell id="3" value="" style="rounded=1;arcSize=10;dashed=1;strokeColor=#ff0000;fillColor=none;gradientColor=none;dashPattern=8 4;strokeWidth=2;" vertex="1" parent="1">
                    <mxGeometry x="-461.75" y="730" width="153.5" height="110" as="geometry"/>
                </mxCell>
                <mxCell id="4" value="Amazon EC2" style="outlineConnect=0;fontColor=#232F3E;gradientColor=none;strokeColor=#ffffff;fillColor=#232F3E;dashed=0;verticalLabelPosition=middle;verticalAlign=bottom;align=center;html=1;whiteSpace=wrap;fontSize=10;fontStyle=1;spacing=3;shape=mxgraph.aws4.productIcon;prIcon=mxgraph.aws4.ec2;" vertex="1" parent="1">
                    <mxGeometry x="-414" y="435" width="54" height="70" as="geometry"/>
                </mxCell>
                <mxCell id="5" value="Amazon EC2" style="outlineConnect=0;fontColor=#232F3E;gradientColor=none;strokeColor=#ffffff;fillColor=#232F3E;dashed=0;verticalLabelPosition=middle;verticalAlign=bottom;align=center;html=1;whiteSpace=wrap;fontSize=10;fontStyle=1;spacing=3;shape=mxgraph.aws4.productIcon;prIcon=mxgraph.aws4.ec2;" vertex="1" parent="1">
                    <mxGeometry x="-416" y="600" width="54" height="70" as="geometry"/>
                </mxCell>
                <mxCell id="6" value="Amazon EC2" style="outlineConnect=0;fontColor=#232F3E;gradientColor=none;strokeColor=#ffffff;fillColor=#232F3E;dashed=0;verticalLabelPosition=middle;verticalAlign=bottom;align=center;html=1;whiteSpace=wrap;fontSize=10;fontStyle=1;spacing=3;shape=mxgraph.aws4.productIcon;prIcon=mxgraph.aws4.ec2;" vertex="1" parent="1">
                    <mxGeometry x="-414" y="750" width="54" height="70" as="geometry"/>
                </mxCell>
                <mxCell id="10" value="" style="outlineConnect=0;dashed=0;verticalLabelPosition=bottom;verticalAlign=top;align=center;html=1;shape=mxgraph.aws3.elasticache;fillColor=#2E73B8;gradientColor=none;" vertex="1" parent="1">
                    <mxGeometry x="-190.63" y="444" width="43" height="47" as="geometry"/>
                </mxCell>
                <mxCell id="11" value="" style="rounded=1;arcSize=10;dashed=1;strokeColor=#ff0000;fillColor=none;gradientColor=none;dashPattern=8 4;strokeWidth=2;" vertex="1" parent="1">
                    <mxGeometry x="-111" y="592.5" width="99" height="75" as="geometry"/>
                </mxCell>
                <mxCell id="12" value="" style="outlineConnect=0;dashed=0;verticalLabelPosition=bottom;verticalAlign=top;align=center;html=1;shape=mxgraph.aws3.rds;fillColor=#2E73B8;gradientColor=none;" vertex="1" parent="1">
                    <mxGeometry x="-85.13" y="602" width="50" height="56" as="geometry"/>
                </mxCell>
                <mxCell id="13" value="" style="rounded=1;arcSize=10;dashed=1;strokeColor=#ff0000;fillColor=none;gradientColor=none;dashPattern=8 4;strokeWidth=2;" vertex="1" parent="1">
                    <mxGeometry x="-230" y="592.5" width="99" height="75" as="geometry"/>
                </mxCell>
                <mxCell id="14" value="" style="rounded=1;arcSize=10;dashed=1;strokeColor=#ff0000;fillColor=none;gradientColor=none;dashPattern=8 4;strokeWidth=2;" vertex="1" parent="1">
                    <mxGeometry x="8.25" y="595" width="99" height="70" as="geometry"/>
                </mxCell>
                <mxCell id="15" value="" style="outlineConnect=0;dashed=0;verticalLabelPosition=bottom;verticalAlign=top;align=center;html=1;shape=mxgraph.aws3.lambda;fillColor=#F58534;gradientColor=none;" vertex="1" parent="1">
                    <mxGeometry x="34.120000000000005" y="600" width="50" height="60" as="geometry"/>
                </mxCell>
                <mxCell id="16" value="" style="outlineConnect=0;dashed=0;verticalLabelPosition=bottom;verticalAlign=top;align=center;html=1;shape=mxgraph.aws3.elasticache;fillColor=#2E73B8;gradientColor=none;" vertex="1" parent="1">
                    <mxGeometry x="-200.63" y="606.5" width="43" height="47" as="geometry"/>
                </mxCell>
                <mxCell id="17" value="" style="rounded=1;arcSize=10;dashed=1;strokeColor=#ff0000;fillColor=none;gradientColor=none;dashPattern=8 4;strokeWidth=2;" vertex="1" parent="1">
                    <mxGeometry x="-111.13" y="745" width="99" height="75" as="geometry"/>
                </mxCell>
                <mxCell id="18" value="" style="outlineConnect=0;dashed=0;verticalLabelPosition=bottom;verticalAlign=top;align=center;html=1;shape=mxgraph.aws3.rds;fillColor=#2E73B8;gradientColor=none;" vertex="1" parent="1">
                    <mxGeometry x="-85.25999999999999" y="754.5" width="50" height="56" as="geometry"/>
                </mxCell>
                <mxCell id="19" value="" style="rounded=1;arcSize=10;dashed=1;strokeColor=#ff0000;fillColor=none;gradientColor=none;dashPattern=8 4;strokeWidth=2;" vertex="1" parent="1">
                    <mxGeometry x="-230.13" y="745" width="99" height="75" as="geometry"/>
                </mxCell>
                <mxCell id="20" value="" style="rounded=1;arcSize=10;dashed=1;strokeColor=#ff0000;fillColor=none;gradientColor=none;dashPattern=8 4;strokeWidth=2;" vertex="1" parent="1">
                    <mxGeometry x="8.12" y="747.5" width="99" height="70" as="geometry"/>
                </mxCell>
                <mxCell id="21" value="" style="outlineConnect=0;dashed=0;verticalLabelPosition=bottom;verticalAlign=top;align=center;html=1;shape=mxgraph.aws3.lambda;fillColor=#F58534;gradientColor=none;" vertex="1" parent="1">
                    <mxGeometry x="33.99" y="752.5" width="50" height="60" as="geometry"/>
                </mxCell>
                <mxCell id="22" value="" style="outlineConnect=0;dashed=0;verticalLabelPosition=bottom;verticalAlign=top;align=center;html=1;shape=mxgraph.aws3.elasticache;fillColor=#2E73B8;gradientColor=none;" vertex="1" parent="1">
                    <mxGeometry x="-200.76" y="759" width="43" height="47" as="geometry"/>
                </mxCell>
            </root>
        </mxGraphModel>
    </diagram>
</mxfile>